<svg viewBox="0 0 24 24" fill="none" xmlns="http://www.w3.org/2000/svg"><path d="M23 5.318H5.048L4.33 2.39A.468.468 0 0 0 3.85 2H.98c-.29 0-.48.195-.48.488s.191.488.479.488h2.49c2.32 9.665 2.589 10.89 2.785 11.723l.402 1.596c.096.195.288.341.48.341H19.84c.192 0 .383-.146.48-.341l3.159-10.343c.096-.293-.144-.634-.479-.634zm-3.543 10.391H7.49l-.09-.39-2.16-9.026h17.09l-2.872 9.416z" fill="currentColor"></path><path d="m5.048 5.318-.243.06.047.19h.196v-.25zM4.33 2.39l-.246.048.003.012.243-.06zm-.862.586.243-.059-.046-.191h-.197v.25zm2.786 11.723-.243.058v.004l.243-.061zm.402 1.596-.242.061.006.025.012.024.224-.11zm13.663 0 .225.11.008-.018.006-.02-.239-.072zm3.16-10.343-.238-.078-.001.005.239.073zm-4.022 9.757v.25h.186l.054-.177-.24-.073zm-11.968 0-.243.057.045.193h.198v-.25zm-.09-.39.243-.057v-.001l-.244.058zm-2.16-9.026v-.25h-.316l.073.308.243-.058zm17.09 0 .24.073.098-.323h-.337v.25zM23 5.068H5.048v.5H23v-.5zm-17.71.19-.717-2.927-.486.119.718 2.927.486-.119zm-.715-2.916a.718.718 0 0 0-.724-.592v.5c.126 0 .21.067.233.188l.491-.096zm-.724-.592H.98v.5h2.87v-.5zm-2.872 0a.723.723 0 0 0-.526.21.742.742 0 0 0-.203.528h.5c0-.091.029-.147.06-.179.031-.031.083-.059.169-.059v-.5zm-.729.738c0 .202.067.39.203.529a.726.726 0 0 0 .526.209v-.5c-.086 0-.138-.028-.169-.06-.03-.031-.06-.086-.06-.177h-.5zm.729.738h2.49v-.5H.978v.5zm2.246-.192c2.322 9.664 2.59 10.888 2.786 11.723l.487-.115c-.197-.834-.465-2.059-2.787-11.725l-.486.117zm2.787 11.727.402 1.595.485-.122-.402-1.596-.485.123zm.42 1.644c.125.254.39.481.703.481v-.5c-.07 0-.187-.065-.254-.201l-.45.22zm.703.481h.546v-.5h-.546v.5zm.546 0h.785v-.5h-.785v.5zm.785 0H19.84v-.5H8.466v.5zm11.374 0c.314 0 .579-.227.704-.481l-.45-.22c-.066.136-.184.201-.254.201v.5zm.718-.518 3.16-10.343-.478-.146-3.16 10.343.478.146zM23.716 6.03c.15-.459-.215-.962-.716-.962v.5c.17 0 .283.179.241.306l.475.156zm-4.259 9.43H8.466v.5h10.991v-.5zm-10.991 0h-.948v.5h.948v-.5zm-.948 0H7.49v.5h.03v-.5zm.215.193-.091-.39-.487.113.09.39.488-.113zm-.091-.392-2.16-9.026-.486.116 2.16 9.026.486-.116zM5.239 6.543h17.09v-.5H5.24v.5zm16.852-.323-2.873 9.416.479.146 2.872-9.416-.478-.146z" fill="currentColor"></path><circle cx="9" cy="20.5" r="1.5" fill="currentColor"></circle><circle cx="18" cy="20.5" r="1.5" fill="currentColor"></circle></svg>