<svg viewBox="0 0 220 36" fill="none" xmlns="http://www.w3.org/2000/svg"><path d="M33.215 11.182V26.63h-4.947v-1.91c-1.488 1.557-3.205 2.332-5.164 2.332-2.287 0-4.14-.682-5.566-2.052-1.426-1.364-2.139-3.391-2.139-6.081 0-1.699.347-3.187 1.042-4.476.694-1.283 1.617-2.281 2.777-2.988a6.986 6.986 0 0 1 3.713-1.06c1.363 0 2.448.205 3.254.62.8.415 1.506.998 2.12 1.748l.316-1.593h4.594v.012zm-4.947 9.51V16.91a3.613 3.613 0 0 0-1.47-1.804c-.693-.446-1.512-.67-2.454-.67-1.085 0-2.008.404-2.777 1.204-.769.8-1.147 1.816-1.147 3.037 0 .8.186 1.537.564 2.207.378.67.88 1.196 1.5 1.574a3.854 3.854 0 0 0 2.034.564c1.723.007 2.969-.774 3.75-2.33zm47.099-9.51V26.63H70.42v-1.91c-1.487 1.557-3.205 2.332-5.163 2.332-2.288 0-4.141-.682-5.567-2.052-1.426-1.364-2.139-3.391-2.139-6.081 0-1.699.347-3.187 1.042-4.476.694-1.283 1.618-2.281 2.777-2.988a6.987 6.987 0 0 1 3.713-1.06c1.364 0 2.449.205 3.254.62.8.415 1.507.998 2.12 1.748l.317-1.593h4.593v.012zm-4.947 9.51V16.91a3.613 3.613 0 0 0-1.469-1.804c-.694-.446-1.512-.67-2.455-.67-1.084 0-2.008.404-2.777 1.204-.768.8-1.147 1.816-1.147 3.037 0 .8.186 1.537.565 2.207.378.67.88 1.196 1.5 1.574a3.855 3.855 0 0 0 2.033.564c1.723.007 2.97-.774 3.75-2.33zM12.2 27.244c0 1.029-.092 2.002-.285 2.926-.192.923-.533 1.735-1.022 2.43-.49.694-1.172 1.24-2.04 1.642-.868.403-1.977.602-3.316.602-.378 0-.794-.025-1.24-.069a6.711 6.711 0 0 1-1.135-.204l.366-4.587c.199.068.41.111.62.136.21.025.397.031.552.031.806 0 1.339-.273 1.605-.818.267-.546.403-1.246.403-2.095V10.135H12.2v17.109zm.403-22.428c0 .422-.08.819-.248 1.19-.167.366-.39.689-.67.955a3.092 3.092 0 0 1-1.003.639c-.39.155-.8.235-1.221.235-.893 0-1.643-.297-2.244-.886-.602-.59-.905-1.302-.905-2.126 0-.403.08-.788.235-1.153a2.72 2.72 0 0 1 .67-.955c.285-.279.62-.496.998-.663a3.034 3.034 0 0 1 1.24-.248c.42 0 .83.08 1.22.235a2.99 2.99 0 0 1 1.005.639c.279.266.502.589.67.954.167.36.253.757.253 1.184zm42.68 13.588c0 1.16-.18 2.275-.534 3.348-.359 1.072-.873 2.014-1.555 2.826a7.74 7.74 0 0 1-2.492 1.96c-.98.489-2.096.737-3.348.737a6.967 6.967 0 0 1-2.913-.62c-.918-.415-1.63-.973-2.145-1.692h-.068v9.875h-5.492V10.135h5.219v2.04h.1c.514-.67 1.22-1.253 2.125-1.755.906-.502 1.972-.75 3.2-.75 1.202 0 2.299.236 3.278.7a7.439 7.439 0 0 1 2.492 1.91 8.763 8.763 0 0 1 1.575 2.796 9.98 9.98 0 0 1 .558 3.328zm-5.325 0c0-.533-.087-1.06-.254-1.574a4.108 4.108 0 0 0-.738-1.358 3.757 3.757 0 0 0-1.221-.954c-.49-.248-1.06-.366-1.705-.366-.626 0-1.184.124-1.674.366-.49.248-.91.57-1.252.973a4.54 4.54 0 0 0-1.09 2.944c0 .54.092 1.06.284 1.575.193.514.46.973.806 1.37.347.403.763.725 1.252.973.49.248 1.048.366 1.674.366.645 0 1.215-.124 1.705-.366s.899-.57 1.221-.973a4.26 4.26 0 0 0 .738-1.389c.173-.52.254-1.053.254-1.587zm39.282 8.4v-9.1c0-.471-.037-.911-.118-1.339a3.71 3.71 0 0 0-.384-1.122 1.96 1.96 0 0 0-.756-.769c-.323-.186-.732-.285-1.222-.285s-.923.093-1.289.285a2.614 2.614 0 0 0-.917.788 3.55 3.55 0 0 0-.552 1.152 4.917 4.917 0 0 0-.186 1.358v9.038h-5.523V10.135h5.325v2.312h.068c.198-.36.465-.706.787-1.053a4.64 4.64 0 0 1 1.14-.887 6.934 6.934 0 0 1 1.42-.601 5.657 5.657 0 0 1 1.643-.236c1.116 0 2.064.199 2.845.601.781.403 1.414.924 1.89 1.556a6.18 6.18 0 0 1 1.036 2.195c.21.824.316 1.649.316 2.48V26.81H89.24v-.006zm27.232-11.747a6.242 6.242 0 0 0-1.575-1.072 4.326 4.326 0 0 0-1.909-.434c-.515 0-.986.099-1.42.303-.433.199-.65.546-.65 1.036 0 .47.241.8.719 1.004.477.198 1.252.421 2.324.67a12.63 12.63 0 0 1 1.891.57c.638.247 1.209.57 1.723.973a4.67 4.67 0 0 1 1.24 1.475c.31.583.471 1.27.471 2.077 0 1.047-.211 1.934-.638 2.66a5.17 5.17 0 0 1-1.656 1.753 7.23 7.23 0 0 1-2.293.974c-.849.198-1.699.303-2.542.303-1.363 0-2.696-.217-3.998-.65-1.308-.434-2.393-1.08-3.261-1.928l3.081-3.249a6.17 6.17 0 0 0 1.81 1.34 5 5 0 0 0 2.275.533c.447 0 .887-.106 1.321-.317.434-.21.651-.589.651-1.122 0-.514-.267-.892-.806-1.14-.533-.248-1.37-.502-2.511-.769a13.358 13.358 0 0 1-1.742-.533 5.552 5.552 0 0 1-1.556-.905 4.508 4.508 0 0 1-1.122-1.407c-.291-.558-.434-1.228-.434-2.009 0-1.004.211-1.86.639-2.56a5.38 5.38 0 0 1 1.643-1.723 7.275 7.275 0 0 1 2.225-.986 9.65 9.65 0 0 1 2.43-.316c1.252 0 2.473.199 3.664.583 1.196.39 2.2.98 3.031 1.76l-3.025 3.106zm97.322 0a6.224 6.224 0 0 0-1.575-1.072 4.323 4.323 0 0 0-1.909-.434c-.514 0-.985.099-1.419.303-.434.199-.651.546-.651 1.036 0 .47.242.8.719 1.004.477.198 1.252.421 2.324.67a12.56 12.56 0 0 1 1.891.57 6.68 6.68 0 0 1 1.723.973 4.67 4.67 0 0 1 1.24 1.475c.31.583.471 1.27.471 2.077 0 1.047-.21 1.934-.638 2.66a5.177 5.177 0 0 1-1.655 1.753 7.246 7.246 0 0 1-2.294.974c-.849.198-1.698.303-2.541.303-1.364 0-2.697-.217-3.999-.65-1.308-.434-2.392-1.08-3.26-1.928l3.081-3.249c.489.534 1.091.98 1.81 1.34a4.993 4.993 0 0 0 2.275.533c.446 0 .886-.106 1.32-.317.434-.21.651-.589.651-1.122 0-.514-.267-.892-.806-1.14-.533-.248-1.37-.502-2.511-.769a13.344 13.344 0 0 1-1.741-.533 5.524 5.524 0 0 1-1.556-.905 4.48 4.48 0 0 1-1.122-1.407c-.292-.558-.434-1.228-.434-2.009 0-1.004.21-1.86.638-2.56.422-.7.973-1.277 1.643-1.723a7.275 7.275 0 0 1 2.225-.986 9.65 9.65 0 0 1 2.43-.316c1.252 0 2.474.199 3.664.583 1.196.39 2.2.98 3.031 1.76l-3.025 3.106zm-74.796 3.613v.67c0 .224-.012.434-.03.639h-12.082c.043.47.186.893.415 1.27.236.379.533.707.905.986a4.3 4.3 0 0 0 1.24.651c.459.155.93.236 1.42.236.867 0 1.605-.162 2.206-.484a4.476 4.476 0 0 0 1.476-1.252l3.818 2.411c-.781 1.14-1.816 2.015-3.099 2.629-1.283.613-2.771.923-4.47.923a10.62 10.62 0 0 1-3.545-.589 8.674 8.674 0 0 1-2.932-1.704c-.837-.75-1.494-1.668-1.978-2.765-.477-1.091-.719-2.343-.719-3.75 0-1.364.236-2.591.701-3.701.471-1.103 1.103-2.04 1.909-2.814a8.44 8.44 0 0 1 2.845-1.792 9.765 9.765 0 0 1 3.546-.638c1.227 0 2.355.204 3.378.62a7.394 7.394 0 0 1 2.647 1.791c.738.781 1.308 1.73 1.723 2.845.422 1.122.626 2.393.626 3.819zm-5.052-2.107c0-.868-.272-1.618-.818-2.244-.545-.626-1.37-.936-2.461-.936a4.17 4.17 0 0 0-1.475.248 3.803 3.803 0 0 0-1.172.688 3.505 3.505 0 0 0-.806 1.023c-.198.39-.31.8-.334 1.221h7.066zm7.916 10.241V1.5h5.592v25.304h-5.592zm25.825-8.134v.67c0 .224-.013.434-.031.639h-12.082c.044.47.186.893.416 1.27.235.379.533.707.905.986.365.28.781.496 1.239.651.459.155.93.236 1.42.236.868 0 1.605-.162 2.207-.484a4.473 4.473 0 0 0 1.475-1.252l3.819 2.411c-.781 1.14-1.817 2.015-3.1 2.629-1.283.613-2.771.923-4.469.923a10.63 10.63 0 0 1-3.546-.589 8.684 8.684 0 0 1-2.932-1.704c-.837-.75-1.494-1.668-1.978-2.765-.477-1.091-.719-2.343-.719-3.75 0-1.364.236-2.591.701-3.701.471-1.103 1.103-2.04 1.909-2.814a8.44 8.44 0 0 1 2.845-1.792 9.765 9.765 0 0 1 3.546-.638c1.228 0 2.356.204 3.379.62a7.381 7.381 0 0 1 2.646 1.791c.738.781 1.308 1.73 1.724 2.845.415 1.122.626 2.393.626 3.819zm-5.058-2.107c0-.868-.273-1.618-.819-2.244-.545-.626-1.37-.936-2.461-.936a4.17 4.17 0 0 0-1.475.248 3.803 3.803 0 0 0-1.172.688 3.485 3.485 0 0 0-.805 1.023c-.199.39-.31.8-.335 1.221h7.067zm19.985-1.035c-.31-.403-.738-.725-1.271-.973a3.956 3.956 0 0 0-1.643-.366c-.582 0-1.103.118-1.574.353a3.8 3.8 0 0 0-1.203.936 4.44 4.44 0 0 0-.787 1.358 4.651 4.651 0 0 0-.285 1.643c0 .582.087 1.128.266 1.642.18.515.44.967.788 1.358.347.39.756.694 1.239.917.478.223 1.023.335 1.624.335a4.56 4.56 0 0 0 1.656-.316c.545-.21.985-.52 1.32-.924l3.044 3.713c-.695.67-1.587 1.197-2.678 1.575-1.091.378-2.257.57-3.484.57-1.314 0-2.548-.198-3.688-.601-1.141-.403-2.133-.986-2.976-1.754a8.277 8.277 0 0 1-1.99-2.796c-.483-1.091-.725-2.33-.725-3.713 0-1.364.242-2.591.725-3.682a8.277 8.277 0 0 1 1.99-2.796 8.756 8.756 0 0 1 2.976-1.773c1.14-.415 2.361-.62 3.651-.62.601 0 1.202.056 1.791.168.589.111 1.159.26 1.705.452a8.023 8.023 0 0 1 1.506.7c.459.28.856.583 1.19.924l-3.167 3.67zm13.141-1.308v6.385c0 .787.149 1.37.453 1.767.304.39.843.588 1.624.588.266 0 .552-.024.855-.068.304-.043.552-.111.75-.198l.069 4.017a8.721 8.721 0 0 1-1.439.353c-.582.1-1.159.149-1.741.149-1.116 0-2.052-.143-2.815-.422-.756-.279-1.37-.681-1.822-1.208a4.71 4.71 0 0 1-.986-1.879 9.24 9.24 0 0 1-.304-2.436V14.22h-2.677v-4.085h2.646V5.752h5.387v4.383h3.918v4.085h-3.918z" fill="currentColor"></path></svg>