<svg viewBox="0 0 24 24" fill="none" xmlns="http://www.w3.org/2000/svg"><path fill-rule="evenodd" clip-rule="evenodd" d="M11.112 20.224a9.112 9.112 0 1 0 0-18.224 9.112 9.112 0 0 0 0 18.224zm0-1.14a7.973 7.973 0 1 0 0-15.945 7.973 7.973 0 0 0 0 15.946z" fill="currentColor"></path><path d="M20.024 11.112a8.912 8.912 0 0 1-8.912 8.912v.4a9.312 9.312 0 0 0 9.312-9.312h-.4zM11.112 2.2a8.912 8.912 0 0 1 8.912 8.912h.4A9.312 9.312 0 0 0 11.112 1.8v.4zM2.2 11.112A8.912 8.912 0 0 1 11.112 2.2v-.4A9.312 9.312 0 0 0 1.8 11.112h.4zm8.912 8.912A8.912 8.912 0 0 1 2.2 11.112h-.4a9.312 9.312 0 0 0 9.312 9.312v-.4zm7.773-8.912a7.773 7.773 0 0 1-7.773 7.773v.4a8.173 8.173 0 0 0 8.173-8.173h-.4zm-7.773-7.773a7.773 7.773 0 0 1 7.773 7.773h.4a8.173 8.173 0 0 0-8.173-8.173v.4zm-7.773 7.773a7.773 7.773 0 0 1 7.773-7.773v-.4a8.173 8.173 0 0 0-8.173 8.173h.4zm7.773 7.773a7.773 7.773 0 0 1-7.773-7.773h-.4a8.173 8.173 0 0 0 8.173 8.173v-.4z" fill="currentColor"></path><rect x="16.694" y="17.008" width="7.504" height="1.501" rx="0.75" transform="rotate(45 16.694 17.008)" fill="currentColor"></rect></svg>